<svg width="80" height="80" viewBox="0 0 80 80" fill="none" xmlns="http://www.w3.org/2000/svg">
<path d="M38.0355 79.9998C27.8663 79.9998 18.3574 76.0377 11.0937 68.9061C-3.6979 54.1145 -3.6979 29.9461 11.0937 15.1545C23.7722 2.47603 43.7144 0.362951 58.506 9.87182C59.8267 10.7963 60.2229 12.6452 59.4305 13.9659C58.506 15.2866 56.657 15.6828 55.3364 14.8904C42.7899 6.83427 26.0173 8.68321 15.3199 19.2486C2.77342 31.7951 2.77342 52.1335 15.3199 64.5478C27.8663 77.0943 48.2047 77.0943 60.6191 64.5478C71.1845 53.9824 73.0334 37.2098 64.9773 24.5313C64.0528 23.2107 64.449 21.3617 65.9018 20.4372C67.2225 19.5128 69.0714 19.909 69.9959 21.3617C79.5048 36.2854 77.3917 56.2276 64.8452 68.774C57.7136 76.0377 48.2047 79.9998 38.0355 79.9998Z" fill="#ECEBF3"/>
<path d="M38.0359 67.4535C31.1684 67.4535 24.8291 64.8121 19.9426 59.9256C10.0375 50.0205 10.0375 33.7762 19.9426 23.8711C27.6025 16.2112 39.2245 14.2302 48.9975 18.8526C50.4502 19.5129 51.1106 21.3618 50.4502 22.8146C49.7899 24.2673 47.941 24.9277 46.4882 24.2673C39.0924 20.7015 30.1118 22.2863 24.3008 28.0973C16.6409 35.7572 16.6409 48.1716 24.3008 55.6994C27.9987 59.3973 32.8852 61.3784 38.1679 61.3784C43.4507 61.3784 48.3372 59.3973 52.035 55.6994C57.846 49.8885 59.4308 40.9079 55.865 33.5121C55.2047 32.0593 55.7329 30.2104 57.3178 29.55C58.7705 28.8897 60.6194 29.418 61.2798 31.0028C65.9022 40.7758 63.9211 52.3978 56.2612 60.0577C51.2426 64.8121 44.9034 67.4535 38.0359 67.4535Z" fill="#ECEBF3"/>
<path d="M38.0351 54.9073C34.6014 54.9073 31.2997 53.5866 28.7904 51.0773C26.2811 48.5681 24.9604 45.3984 24.9604 41.8326C24.9604 38.3988 26.2811 35.0971 28.7904 32.5879C31.0356 30.3427 33.941 29.022 37.1107 28.7579C38.8276 28.6258 40.1482 29.9465 40.2803 31.5313C40.4124 33.1161 39.0917 34.5689 37.5069 34.7009C35.79 34.833 34.2052 35.4934 33.0166 36.814C31.6959 38.1347 30.9035 39.8516 30.9035 41.8326C30.9035 43.6816 31.6959 45.5305 33.0166 46.8512C34.3373 48.1719 36.0541 48.9643 38.0351 48.9643C39.8841 48.9643 41.733 48.1719 43.0537 46.8512C44.2423 45.6626 45.0347 44.0778 45.0347 42.3609C45.1668 40.7761 46.4875 39.4554 48.2044 39.5875C49.7892 39.7195 51.1098 41.0402 50.9778 42.7571C50.7136 45.9267 49.393 48.8322 47.1478 51.0773C44.7706 53.5866 41.601 54.9073 38.0351 54.9073Z" fill="#ECEBF3"/>
<path d="M38.8279 44.2097C38.0355 44.2097 37.2431 43.9455 36.7148 43.2852C35.5262 42.0966 35.5262 40.2476 36.7148 39.059L74.8824 0.891457C76.071 -0.297152 77.9199 -0.297152 79.1085 0.891457C80.2972 2.08007 80.2972 3.92901 79.1085 5.11762L40.941 43.2852C40.2806 43.9455 39.6203 44.2097 38.8279 44.2097Z" fill="#ECEBF3"/>
</svg>
