<svg width="80" height="80" viewBox="0 0 80 80" fill="none" xmlns="http://www.w3.org/2000/svg">
<path d="M20.875 43.625H15.375C13.875 43.625 12.5 44.875 12.5 46.5C12.5 48.125 13.75 49.375 15.375 49.375H20.875C22.375 49.375 23.75 48.125 23.75 46.5C23.75 44.875 22.375 43.625 20.875 43.625Z" fill="#ECEBF3"/>
<path d="M51.5 43.625H46C44.5 43.625 43.125 44.875 43.125 46.5C43.125 48.125 44.375 49.375 46 49.375H51.5C53 49.375 54.375 48.125 54.375 46.5C54.375 44.875 53 43.625 51.5 43.625Z" fill="#ECEBF3"/>
<path d="M70.875 40.375V23.75C74 22.625 76.125 19.625 76.125 16.25C76.125 11.75 72.5 8.125 68 8.125C63.5 8.125 59.875 11.75 59.875 16.25C59.875 19.75 62.125 22.625 65.125 23.75V40.25H63.75V39.375C63.75 34.375 59.625 30.25 54.625 30.25H47.5V27.5C47.5 23.375 44.125 20.125 40.125 20.125H36.25V11.875C36.25 10.375 35 9 33.375 9C31.75 9 30.5 10.25 30.5 11.875V20.125H26.5C22.375 20.125 19.125 23.5 19.125 27.5V30.25H11.25C6.25 30.25 2.125 34.375 2.125 39.375V62.75C2.125 67.75 6.25 71.875 11.25 71.875H54.75C59.75 71.875 63.875 67.75 63.875 62.75V61.875H70.5C74.625 61.875 77.875 58.5 77.875 54.5V47.875C77.875 43.75 74.75 40.625 70.875 40.375ZM68 13.75C69.375 13.75 70.5 14.875 70.5 16.25C70.5 17.625 69.375 18.75 68 18.75C66.625 18.75 65.5 17.625 65.5 16.25C65.5 14.875 66.625 13.75 68 13.75ZM24.875 27.5C24.875 26.5 25.625 25.75 26.625 25.75H40.125C41.125 25.75 41.875 26.5 41.875 27.5V30.25H24.875V27.5ZM58.125 62.75C58.125 64.625 56.625 66.25 54.625 66.25H11.25C9.375 66.25 7.75 64.75 7.75 62.75V39.375C7.75 37.5 9.25 35.875 11.25 35.875H54.75C56.625 35.875 58.25 37.375 58.25 39.375V62.75H58.125ZM72.25 54.375C72.25 55.375 71.5 56.125 70.5 56.125H63.75V45.875H70.375C71.375 45.875 72.125 46.625 72.125 47.625V54.375H72.25Z" fill="#ECEBF3"/>
<path d="M38 52.5C36.5 52.5 35.125 53.75 35.125 55.375C35.125 56.375 34.375 57.125 33.375 57.125C32.375 57.125 31.625 56.375 31.625 55.375C31.625 53.875 30.375 52.5 28.75 52.5C27.125 52.5 25.875 53.75 25.875 55.375C25.875 59.5 29.25 62.75 33.25 62.75C37.25 62.75 40.625 59.375 40.625 55.375C40.75 53.75 39.5 52.5 38 52.5Z" fill="#ECEBF3"/>
</svg>
