<svg width="80" height="80" viewBox="0 0 80 80" fill="none" xmlns="http://www.w3.org/2000/svg">
<path d="M70 4.625H10C5.75 4.625 2.125 8.125 2.125 12.5V67.625C2.125 71.875 5.625 75.5 10 75.5H70C74.25 75.5 77.875 72 77.875 67.625V12.375C77.875 8.125 74.25 4.625 70 4.625ZM10 10.25H70C71.25 10.25 72.25 11.25 72.25 12.5V20.25H7.875V12.375C7.875 11.25 8.75 10.25 10 10.25ZM70 69.75H10C8.75 69.75 7.75 68.75 7.75 67.5V25.75H72.125V67.5C72.25 68.75 71.25 69.75 70 69.75Z" fill="#ECEBF3"/>
<path d="M26.25 57.375H26.125V51.125C26.125 50.375 25.875 49.75 25.375 49.25L23.5 47.25L25.375 45.25C25.875 44.75 26.125 44 26.125 43.375V37.875H26.25C27.75 37.875 29.125 36.625 29.125 35C29.125 33.375 27.875 32.125 26.25 32.125H23.25C21.75 32.125 20.375 33.375 20.375 35V42.25L17.625 45.375C16.625 46.5 16.625 48.125 17.625 49.125L20.375 52.25V60.25C20.375 61.75 21.625 63.125 23.25 63.125H26.25C27.75 63.125 29.125 61.875 29.125 60.25C29.125 58.625 27.75 57.375 26.25 57.375Z" fill="#ECEBF3"/>
<path d="M59.5 42.25V35C59.5 33.5 58.25 32.125 56.625 32.125H53.75C52.25 32.125 50.875 33.375 50.875 35C50.875 36.625 52.125 37.875 53.75 37.875H53.875V43.375C53.875 44.125 54.125 44.75 54.625 45.25L56.5 47.25L54.625 49.25C54.125 49.75 53.875 50.5 53.875 51.125V57.375H53.75C52.25 57.375 50.875 58.625 50.875 60.25C50.875 61.875 52.125 63.125 53.75 63.125H56.75C58.25 63.125 59.625 61.875 59.625 60.25V52.25L62.375 49.125C63.375 48 63.375 46.375 62.375 45.375L59.5 42.25Z" fill="#ECEBF3"/>
</svg>
