<svg width="81" height="43" viewBox="0 0 81 43" fill="none" xmlns="http://www.w3.org/2000/svg">
<path d="M2.016 34.56V-3.8147e-06H8.304V34.56H2.016ZM13.5139 34.56V6.72H35.1619C36.3779 6.72 37.4819 7.024 38.4739 7.632C39.4979 8.24 40.2979 9.04 40.8739 10.032C41.4819 11.024 41.7859 12.128 41.7859 13.344V34.56H35.4979V13.584C35.4979 13.424 35.4339 13.296 35.3059 13.2C35.2099 13.072 35.0819 13.008 34.9219 13.008H20.3779C20.2179 13.008 20.0739 13.072 19.9459 13.2C19.8499 13.296 19.8019 13.424 19.8019 13.584V34.56H13.5139ZM59.4158 34.56V6.384H45.3038V-3.8147e-06H79.8638V6.384H65.7998V34.56H59.4158Z" fill="white"/>
<path d="M0 40.56H80.7758V42.96H0V40.56Z" fill="white"/>
</svg>
