<svg width="80" height="80" viewBox="0 0 80 80" fill="none" xmlns="http://www.w3.org/2000/svg">
<path d="M70 12H10C5.75 12 2.125 15.5 2.125 19.875V60.375C2.125 64.625 5.625 68.25 10 68.25H70C74.25 68.25 77.875 64.75 77.875 60.375V19.75C77.875 15.5 74.25 12 70 12ZM70 17.625C70.125 17.625 70.25 17.625 70.375 17.625L40 37.125L9.625 17.625C9.75 17.625 9.875 17.625 10 17.625H70ZM70 62.375H10C8.75 62.375 7.75 61.375 7.75 60.125V23.125L37 41.875C37.875 42.5 38.875 42.75 39.875 42.75C40.875 42.75 41.875 42.5 42.75 41.875L72 23.125V60.25C72.25 61.5 71.25 62.375 70 62.375Z" fill="#8DD6FF"/>
</svg>
