<svg width="80" height="80" viewBox="0 0 80 80" fill="none" xmlns="http://www.w3.org/2000/svg">
<path d="M40.0002 25.8334C32.1761 25.8334 25.8335 32.176 25.8335 40C25.8335 47.824 32.1761 54.1667 40.0002 54.1667C47.8242 54.1667 54.1668 47.824 54.1668 40C54.1668 32.176 47.8242 25.8334 40.0002 25.8334Z" fill="#8DD6FF"/>
<path d="M6.6665 23.3333C6.6665 14.1286 14.1284 6.66663 23.3332 6.66663H56.6665C65.8712 6.66663 73.3332 14.1286 73.3332 23.3333V56.6666C73.3332 65.8713 65.8712 73.3333 56.6665 73.3333H23.3332C14.1284 73.3333 6.6665 65.8713 6.6665 56.6666V23.3333ZM20.8332 40C20.8332 50.5853 29.4144 59.1666 39.9998 59.1666C50.5852 59.1666 59.1665 50.5853 59.1665 40C59.1665 29.4145 50.5852 20.8333 39.9998 20.8333C29.4144 20.8333 20.8332 29.4145 20.8332 40ZM59.9998 23.3333C61.8408 23.3333 63.3332 21.8409 63.3332 20C63.3332 18.159 61.8408 16.6666 59.9998 16.6666C58.1588 16.6666 56.6665 18.159 56.6665 20C56.6665 21.8409 58.1588 23.3333 59.9998 23.3333Z" fill="#8DD6FF"/>
</svg>
