<svg width="80" height="80" viewBox="0 0 80 80" fill="none" xmlns="http://www.w3.org/2000/svg">
<path d="M68.3875 6.66663H11.5057C8.81753 6.66663 6.66699 8.81716 6.66699 11.5053V68.4946C6.66699 71.0752 8.81753 73.3333 11.5057 73.3333H68.1724C70.8606 73.3333 73.0111 71.1828 73.0111 68.4946V11.3978C73.2262 8.81716 71.0756 6.66663 68.3875 6.66663ZM26.3445 63.3333H16.5595V31.6129H26.3445V63.3333ZM21.3982 27.2043C18.1724 27.2043 15.6993 24.6236 15.6993 21.5053C15.6993 18.3871 18.2799 15.8064 21.3982 15.8064C24.5165 15.8064 27.0971 18.3871 27.0971 21.5053C27.0971 24.6236 24.7316 27.2043 21.3982 27.2043ZM63.4412 63.3333H53.6563V47.9569C53.6563 44.301 53.5488 39.4623 48.495 39.4623C43.3337 39.4623 42.581 43.5483 42.581 47.6344V63.3333H32.7961V31.6129H42.366V36.0215H42.4735C43.8713 33.4408 46.9896 30.8602 51.8283 30.8602C61.8283 30.8602 63.6563 37.3118 63.6563 46.129V63.3333H63.4412Z" fill="#8DD6FF"/>
</svg>
