<svg width="80" height="80" viewBox="0 0 80 80" fill="none" xmlns="http://www.w3.org/2000/svg">
<path d="M67.5 12.3755C60.25 5.12549 50.375 1.12549 40.25 1.12549C19 1.12549 1.625 18.3755 1.625 39.6255C1.625 46.5005 3.375 53.0005 6.75 59.0005L1.25 78.8755L21.875 73.6255C27.5 76.6255 33.875 78.3755 40.375 78.3755C61.5 78.2505 78.75 61.0005 78.75 39.6255C78.75 29.3755 74.75 19.7505 67.5 12.3755ZM40.125 71.7505C34.5 71.7505 28.625 70.1255 23.75 67.1255L22.5 66.3755L10.375 69.5005L13.75 57.7505L13 56.5005C9.875 51.3755 8.125 45.3755 8.125 39.3755C8.125 21.7505 22.375 7.50049 40.125 7.50049C48.625 7.50049 56.625 10.8755 62.625 16.8755C68.625 22.8755 72 31.0005 72 39.6255C72.25 57.5005 57.75 71.7505 40.125 71.7505ZM57.75 47.7505C56.75 47.2505 52.125 44.8755 51 44.7505C50.125 44.3755 49.375 44.2505 48.875 45.2505C48.375 46.2505 46.375 48.2505 45.875 49.0005C45.375 49.5005 44.875 49.7505 43.75 49.1255C42.75 48.6255 39.75 47.7505 36 44.2505C33.125 41.7505 31.125 38.6255 30.75 37.5005C30.25 36.5005 30.625 36.1255 31.25 35.5005C31.75 35.0005 32.25 34.5005 32.625 33.7505C33.125 33.2505 33.125 32.7505 33.625 32.1255C34.125 31.6255 33.75 30.8755 33.5 30.3755C33.125 29.8755 31.375 25.1255 30.5 23.1255C29.75 21.1255 28.875 21.5005 28.375 21.5005C27.875 21.5005 27.125 21.5005 26.625 21.5005C26.125 21.5005 24.875 21.6255 24.125 22.7505C23.25 23.7505 20.75 26.1255 20.75 30.8755C20.75 35.6255 24.125 40.0005 24.75 40.8755C25.25 41.3755 31.625 51.2505 41.125 55.5005C43.375 56.5005 45.125 57.1255 46.625 57.6255C48.875 58.3755 51 58.1255 52.625 58.0005C54.5 57.8755 58.25 55.7505 59.125 53.3755C59.875 51.2505 59.875 49.1255 59.625 48.7505C59.375 48.5005 58.625 48.1255 57.75 47.7505Z" fill="#8DD6FF"/>
</svg>
